<svg xmlns="http://www.w3.org/2000/svg" viewBox="0 0 32 32" fill="none">
  <rect x="0" y="0" width="32" height="32" rx="6" fill="#1C1F22"/>
  <rect x="1.5" y="1.5" width="29" height="29" rx="6" stroke="#1BC9C4" stroke-width="1.2" fill="none"/>
  <g transform="translate(5.995,23) scale(0.017,-0.017)">
    <path d="M302 165V340H801Q831 340 851.5 349.5Q872 359 872 390Q872 422 851.5 431.0Q831 440 801 440H318V0H68V640H762Q837 640 902.5 629.5Q968 619 1017.0 592.0Q1066 565 1094.0 516.0Q1122 467 1122 390Q1122 313 1094.0 268.0Q1066 223 1017.0 201.0Q968 179 902.5 172.0Q837 165 762 165Z" fill="#1BC9C4"/>
  </g>
</svg>
